<svg width="187" height="58" viewBox="0 0 187 58" fill="none" xmlns="http://www.w3.org/2000/svg">
<path d="M9.408 38H2.064V21.224H8.592C9.728 21.224 10.704 21.36 11.52 21.632C12.352 21.904 12.976 22.272 13.392 22.736C14.144 23.6 14.52 24.576 14.52 25.664C14.52 26.976 14.096 27.952 13.248 28.592C12.96 28.816 12.76 28.96 12.648 29.024C12.536 29.072 12.336 29.16 12.048 29.288C13.088 29.512 13.912 29.984 14.52 30.704C15.144 31.408 15.456 32.288 15.456 33.344C15.456 34.512 15.056 35.544 14.256 36.44C13.328 37.48 11.712 38 9.408 38ZM5.808 28.016H7.584C8.624 28.016 9.392 27.904 9.888 27.68C10.4 27.456 10.656 26.976 10.656 26.24C10.656 25.488 10.424 24.992 9.96 24.752C9.496 24.512 8.712 24.392 7.608 24.392H5.808V28.016ZM5.808 34.832H8.376C9.448 34.832 10.248 34.704 10.776 34.448C11.32 34.176 11.592 33.656 11.592 32.888C11.592 32.104 11.304 31.592 10.728 31.352C10.168 31.096 9.264 30.968 8.016 30.968H5.808V34.832ZM25.1429 28.256C24.0709 28.256 23.2709 28.64 22.7429 29.408C22.2149 30.16 21.9509 31.16 21.9509 32.408V38H18.3509V25.088H21.9509V26.792C22.4149 26.264 22.9909 25.816 23.6789 25.448C24.3829 25.08 25.0949 24.888 25.8149 24.872L25.8389 28.256H25.1429ZM39.1689 38H35.7849V36.44C34.8569 37.608 33.7049 38.192 32.3289 38.192C30.9689 38.192 29.8249 37.8 28.8969 37.016C27.9689 36.216 27.5049 35.16 27.5049 33.848C27.5049 32.52 27.9849 31.528 28.9449 30.872C29.9049 30.216 31.2169 29.888 32.8809 29.888H35.5689V29.816C35.5689 28.44 34.8409 27.752 33.3849 27.752C32.7609 27.752 32.0969 27.88 31.3929 28.136C30.7049 28.376 30.1209 28.68 29.6409 29.048L28.0329 26.72C29.7289 25.488 31.6649 24.872 33.8409 24.872C35.4089 24.872 36.6889 25.264 37.6809 26.048C38.6729 26.832 39.1689 28.072 39.1689 29.768V38ZM35.5449 33.08V32.456H33.2889C31.8489 32.456 31.1289 32.904 31.1289 33.8C31.1289 34.264 31.2969 34.624 31.6329 34.88C31.9849 35.12 32.4809 35.24 33.1209 35.24C33.7609 35.24 34.3209 35.048 34.8009 34.664C35.2969 34.264 35.5449 33.736 35.5449 33.08ZM46.1509 30.8V38H42.5509V25.088H46.1509V26.528C47.2389 25.424 48.4629 24.872 49.8229 24.872C51.1829 24.872 52.3189 25.352 53.2309 26.312C54.1589 27.272 54.6229 28.552 54.6229 30.152V38H51.0229V30.704C51.0229 28.72 50.2949 27.728 48.8389 27.728C48.1189 27.728 47.4869 27.992 46.9429 28.52C46.4149 29.032 46.1509 29.792 46.1509 30.8ZM63.139 38.192C61.619 38.192 60.259 37.544 59.059 36.248C57.859 34.952 57.259 33.344 57.259 31.424C57.259 29.504 57.843 27.936 59.011 26.72C60.179 25.488 61.547 24.872 63.115 24.872C64.683 24.872 65.963 25.424 66.955 26.528V20.192H70.555V38H66.955V36.296C65.947 37.56 64.675 38.192 63.139 38.192ZM60.883 31.568C60.883 32.608 61.195 33.464 61.819 34.136C62.443 34.792 63.171 35.12 64.003 35.12C64.835 35.12 65.539 34.792 66.115 34.136C66.707 33.464 67.003 32.608 67.003 31.568C67.003 30.512 66.707 29.64 66.115 28.952C65.539 28.248 64.827 27.896 63.979 27.896C63.131 27.896 62.403 28.248 61.795 28.952C61.187 29.656 60.883 30.528 60.883 31.568ZM77.6634 30.8V38H74.0634V25.088H77.6634V26.528C78.7514 25.424 79.9754 24.872 81.3354 24.872C82.6954 24.872 83.8314 25.352 84.7434 26.312C85.6714 27.272 86.1354 28.552 86.1354 30.152V38H82.5354V30.704C82.5354 28.72 81.8074 27.728 80.3514 27.728C79.6314 27.728 78.9994 27.992 78.4554 28.52C77.9274 29.032 77.6634 29.792 77.6634 30.8ZM100.459 38H97.0755V36.44C96.1475 37.608 94.9955 38.192 93.6195 38.192C92.2595 38.192 91.1155 37.8 90.1875 37.016C89.2595 36.216 88.7955 35.16 88.7955 33.848C88.7955 32.52 89.2755 31.528 90.2355 30.872C91.1955 30.216 92.5075 29.888 94.1715 29.888H96.8595V29.816C96.8595 28.44 96.1315 27.752 94.6755 27.752C94.0515 27.752 93.3875 27.88 92.6835 28.136C91.9955 28.376 91.4115 28.68 90.9315 29.048L89.3235 26.72C91.0195 25.488 92.9555 24.872 95.1315 24.872C96.6995 24.872 97.9795 25.264 98.9715 26.048C99.9635 26.832 100.459 28.072 100.459 29.768V38ZM96.8355 33.08V32.456H94.5795C93.1395 32.456 92.4195 32.904 92.4195 33.8C92.4195 34.264 92.5875 34.624 92.9235 34.88C93.2755 35.12 93.7715 35.24 94.4115 35.24C95.0515 35.24 95.6115 35.048 96.0915 34.664C96.5875 34.264 96.8355 33.736 96.8355 33.08ZM115.697 31.04V38H112.073V30.944C112.073 29.92 111.913 29.168 111.593 28.688C111.289 28.208 110.785 27.968 110.081 27.968C109.393 27.968 108.777 28.232 108.233 28.76C107.705 29.272 107.441 30.032 107.441 31.04V38H103.841V25.088H107.441V26.552C108.433 25.432 109.569 24.872 110.849 24.872C111.665 24.872 112.401 25.112 113.057 25.592C113.729 26.072 114.233 26.656 114.569 27.344C115.065 26.56 115.729 25.952 116.561 25.52C117.409 25.088 118.257 24.872 119.105 24.872C120.625 24.872 121.849 25.328 122.777 26.24C123.705 27.136 124.169 28.44 124.169 30.152V38H120.545V30.944C120.545 28.96 119.817 27.968 118.361 27.968C117.641 27.968 117.017 28.232 116.489 28.76C115.961 29.272 115.697 30.032 115.697 31.04ZM138.727 36.128C137.271 37.504 135.559 38.192 133.591 38.192C131.639 38.192 130.023 37.592 128.743 36.392C127.463 35.176 126.823 33.552 126.823 31.52C126.823 29.488 127.471 27.872 128.767 26.672C130.079 25.472 131.623 24.872 133.399 24.872C135.175 24.872 136.679 25.408 137.911 26.48C139.159 27.552 139.783 29.024 139.783 30.896V32.816H130.375C130.487 33.52 130.855 34.096 131.479 34.544C132.103 34.992 132.807 35.216 133.591 35.216C134.855 35.216 135.895 34.792 136.711 33.944L138.727 36.128ZM136.135 30.248C136.055 29.48 135.767 28.888 135.271 28.472C134.775 28.056 134.167 27.848 133.447 27.848C132.743 27.848 132.095 28.064 131.503 28.496C130.911 28.928 130.567 29.512 130.471 30.248H136.135Z" fill="#252B42"/>
</svg>
