<svg width="40" height="40" viewBox="0 0 40 40" fill="none" xmlns="http://www.w3.org/2000/svg">
<path d="M0 20C0 8.95431 8.95431 0 20 0C31.0457 0 40 8.95431 40 20C40 31.0457 31.0457 40 20 40C8.95431 40 0 31.0457 0 20Z" fill="white"/>
<path d="M24.0303 12.8125H24.0312C24.611 12.8127 25.1851 12.9281 25.7197 13.1523C26.2545 13.3767 26.739 13.7055 27.1455 14.1191C27.9744 14.963 28.4385 16.0984 28.4385 17.2812C28.4385 18.4641 27.9744 19.5995 27.1455 20.4434L19.999 27.6797L12.8535 20.4434C12.0248 19.5996 11.5605 18.464 11.5605 17.2812C11.5605 16.0985 12.0248 14.9629 12.8535 14.1191C13.2601 13.7058 13.7455 13.3774 14.2803 13.1533C14.8149 12.9293 15.3891 12.8135 15.9688 12.8135C16.5485 12.8135 17.1226 12.9292 17.6572 13.1533C18.1919 13.3774 18.6765 13.7058 19.083 14.1191L19.084 14.1201L19.7773 14.8203L20 15.0439L20.2217 14.8203L20.915 14.1201L20.917 14.1191C21.323 13.7051 21.8071 13.3757 22.3418 13.1514C22.8764 12.9271 23.4505 12.8121 24.0303 12.8125ZM24.0312 13.4375C23.5321 13.4368 23.0377 13.5368 22.5781 13.7314C22.1193 13.9258 21.7039 14.2102 21.3574 14.5684L20 15.9521L18.6357 14.5566L18.6348 14.5557C18.287 14.2016 17.8718 13.9205 17.4141 13.7285C16.9563 13.5365 16.4651 13.4375 15.9688 13.4375C15.4722 13.4375 14.9803 13.5364 14.5225 13.7285C14.0647 13.9206 13.6496 14.2015 13.3018 14.5557C12.5878 15.2806 12.1875 16.2579 12.1875 17.2754C12.1876 18.2927 12.5879 19.2693 13.3018 19.9941H13.3027L19.7773 26.5508L20 26.7764L20.2217 26.5508L26.6973 19.9941C27.4113 19.2693 27.8114 18.2928 27.8115 17.2754C27.8115 16.2578 27.4114 15.2806 26.6973 14.5557C26.3497 14.2014 25.9352 13.9195 25.4775 13.7275C25.0197 13.5355 24.5277 13.4372 24.0312 13.4375Z" fill="#BDBDBD" stroke="#252B42" stroke-width="0.625"/>
</svg>
